# xmcd CD database file
#
# Track frame offsets:
#	150
#	21225
#	38475
#	54975
#	67950
#	83701
#	99977
#	116327
#	132827
#	153078
#	168453
#	193429
#	213980
#
# Disc length: 3081 seconds
#
# Revision: 6
# Processed by: cddbd v1.5.2PL0 Copyright (c) Steve Scherf et al.
# Submitted via: CDex 1.70beta2
#
DISCID=a10c070d
DTITLE=SUPERCAR - B DISC 1
DYEAR=2005
DGENRE=Rock
TTITLE0=(AM I) CONFUSING YOU?
TTITLE1=LOVE SONG
TTITLE2=HELLO
TTITLE3=RIGHT NOW
TTITLE4=YES,
TTITLE5=ALRIGHT
TTITLE6=HALKROAD
TTITLE7=SEVEN FRONT
TTITLE8=WAVEMENT
TTITLE9=SLEEPING BAG
TTITLE10=ELECTRIC SEA
TTITLE11=PINK ROCK
TTITLE12=GUMNOVA
EXTD=YEAR: 2005
EXTT0=
EXTT1=
EXTT2=
EXTT3=
EXTT4=
EXTT5=
EXTT6=
EXTT7=
EXTT8=
EXTT9=
EXTT10=
EXTT11=
EXTT12=
PLAYORDER=
